<?xml version="1.0" encoding="UTF-8" standalone="no"?>
<svg width="452px" height="503px" viewBox="0 0 452 503" version="1.1" xmlns="http://www.w3.org/2000/svg" xmlns:xlink="http://www.w3.org/1999/xlink">
    <!-- Generator: Sketch 41.2 (35397) - http://www.bohemiancoding.com/sketch -->
    <title>Fill 1</title>
    <desc>Created with Sketch.</desc>
    <defs></defs>
    <g id="Page-1" stroke="none" stroke-width="1" fill="none" fill-rule="evenodd">
        <g id="Desktop-HD-Copy-17" transform="translate(-988.000000, -2459.000000)" fill="#FFFFFF">
            <path d="M1277.85111,2848.33588 C1237.95079,2848.33588 1205.4885,2815.8736 1205.4885,2775.97327 C1205.4885,2736.07134 1237.95079,2703.61066 1277.85111,2703.61066 C1317.75144,2703.61066 1350.21212,2736.07134 1350.21212,2775.97327 C1350.21212,2815.8736 1317.75144,2848.33588 1277.85111,2848.33588 L1277.85111,2848.33588 Z M1277.85111,2465.41072 L1443.08103,2751.59971 C1405.02699,2707.92507 1357.21744,2670.55218 1277.85111,2670.55218 C1190.66371,2670.55218 1145.271,2720.10384 1115.23357,2752.89307 C1113.00104,2755.33235 1110.83742,2757.6915 1108.7331,2759.95448 L1107.69937,2761.06514 L1108.75233,2762.15817 C1111.43842,2764.94523 1114.2335,2767.92782 1117.15839,2771.04984 C1147.18621,2803.10184 1192.56289,2851.54124 1277.85111,2851.54124 C1319.5192,2851.54124 1353.41748,2817.64135 1353.41748,2775.97327 C1353.41748,2734.30519 1319.5192,2700.4053 1277.85111,2700.4053 C1236.18303,2700.4053 1202.28314,2734.30519 1202.28314,2775.97327 C1202.28314,2808.16631 1222.5282,2835.70676 1250.94853,2846.57454 C1184.06388,2837.72614 1145.80309,2796.93793 1119.4983,2768.85897 C1116.94043,2766.12961 1114.48191,2763.50602 1112.10995,2761.02668 C1113.89533,2759.10025 1115.72079,2757.10652 1117.59752,2755.05829 C1149.02929,2720.74812 1192.07407,2673.75754 1277.85111,2673.75754 C1364.21955,2673.75754 1412.74389,2718.82971 1452.29964,2767.56561 L1562.14894,2957.82939 L993.551684,2957.82939 L1277.85111,2465.41072 Z M1277.85111,2459 L989.387921,2958.63073 L988,2961.03475 L1567.70063,2961.03475 L1277.85111,2459 Z" id="Fill-1"></path>
        </g>
    </g>
</svg>