<?xml version="1.0" encoding="UTF-8" standalone="no"?>
<svg width="30px" height="30px" viewBox="0 0 30 30" version="1.1" xmlns="http://www.w3.org/2000/svg" xmlns:xlink="http://www.w3.org/1999/xlink">
    <!-- Generator: Sketch 41.2 (35397) - http://www.bohemiancoding.com/sketch -->
    <title>Fill 117</title>
    <desc>Created with Sketch.</desc>
    <defs></defs>
    <g id="Page-1" stroke="none" stroke-width="1" fill="none" fill-rule="evenodd">
        <g id="Desktop-HD-Copy-17" transform="translate(-927.000000, -4829.000000)" fill="#1F2D78">
            <path d="M942,4831.18761 C949.070475,4831.18761 954.812393,4836.92953 954.812393,4844 C954.812393,4851.07047 949.070475,4856.81239 942,4856.81239 C934.929525,4856.81239 929.187607,4851.07047 929.187607,4844 C929.187607,4836.92953 934.929525,4831.18761 942,4831.18761 L942,4831.18761 Z M943.640338,4834.84022 C941.082261,4834.84022 938.913728,4836.57813 938.913728,4839.50814 L938.913728,4842.10583 L935.789309,4842.10583 L935.789309,4845.28894 L938.913728,4845.28894 L938.913728,4853.88238 L942.019807,4853.88238 L942.019807,4845.28894 L945.51543,4845.28894 L946.023084,4842.10583 L942.019807,4842.10583 L942.019807,4839.70328 C942.019807,4838.72685 942.273634,4838.02333 943.660146,4838.02333 L946.00401,4838.02333 L946.00401,4835.01555 C945.691495,4834.97667 944.851519,4834.84022 943.640338,4834.84022 L943.640338,4834.84022 Z M942,4829 C933.719079,4829 927,4835.71908 927,4844 C927,4852.28092 933.719079,4859 942,4859 C950.280921,4859 957,4852.28092 957,4844 C957,4835.71908 950.280921,4829 942,4829 L942,4829 Z" id="Fill-117"></path>
        </g>
    </g>
</svg>