<?xml version="1.0" encoding="UTF-8" standalone="no"?>
<svg width="1440px" height="1127px" viewBox="0 0 1440 1127" version="1.1" xmlns="http://www.w3.org/2000/svg" xmlns:xlink="http://www.w3.org/1999/xlink">
    <!-- Generator: Sketch 41.2 (35397) - http://www.bohemiancoding.com/sketch -->
    <title>Fill 4 Copy 3</title>
    <desc>Created with Sketch.</desc>
    <defs>
        <rect id="path-1" x="0" y="0" width="1440" height="1127"></rect>
    </defs>
    <g id="Page-1" stroke="none" stroke-width="1" fill="none" fill-rule="evenodd">
        <g id="Desktop-HD-Copy-17">
            <g id="Fill-4-Copy-3">
                <mask id="mask-2" fill="white">
                    <use xlink:href="#path-1"></use>
                </mask>
                <g id="Mask"></g>
                <path d="M572.086,965.837 C571.884,966.707 571.682,967.577 571.481,968.446 C573.672,969.071 575.864,969.695 578.056,970.32 C578.202,969.233 578.616,967.243 578.454,967.195 C576.379,966.581 574.222,966.244 572.086,965.837 M484.629,336.471 C473.194,337.309 463.908,336.727 457.844,344.21 C453.495,349.575 448.145,353.037 442.488,356.558 C439.835,358.211 437.096,361.104 436.305,363.963 C435.578,366.593 436.549,371.842 438.268,372.617 C444.796,375.561 451.821,377.734 458.873,379.082 C464.826,380.22 468.599,375.711 471.847,371.328 C475.316,366.646 480.319,365.571 485.682,364.432 C491.423,363.212 497.387,361.566 502.371,358.613 C509.445,354.423 508.676,344.052 501.084,340.834 C495.103,338.298 488.415,337.428 484.629,336.471 M64.668,1262.548 C57.992,1253.022 58.072,1252.755 49.974,1250.575 C36.571,1246.967 26.302,1239.269 18.283,1228.047 C12.517,1219.979 6.359,1212.175 0.087,1204.489 C-2.791,1200.963 -7.093,1200.329 -10.543,1203.243 C-19.13,1210.499 -27.574,1217.97 -35.529,1225.901 C-38.165,1228.529 -39.637,1232.679 -40.746,1236.4 C-42.374,1241.868 -38.771,1247.053 -33.107,1248.258 C-31.174,1248.67 -29.162,1248.992 -27.198,1248.936 C-9.014,1248.414 8.127,1253.127 25.411,1258.159 C37.218,1261.597 49.501,1265.04 64.668,1262.548 M-48.516,779.196 C-50.956,778.87 -52.585,778.104 -53.47,778.618 C-66.062,785.935 -79.612,792.114 -90.827,801.172 C-108.888,815.761 -125.568,832.09 -142.469,848.067 C-149.69,854.894 -156.343,862.404 -162.629,870.114 C-169.912,879.046 -169.331,885.187 -160.417,892.236 C-150.531,900.054 -139.72,906.717 -129.985,914.705 C-121.357,921.784 -111.647,921.713 -101.683,921.075 C-95.811,920.699 -91.869,917.106 -90.463,911.349 C-89.683,908.153 -89.221,904.783 -89.262,901.501 C-89.575,876.887 -81.675,854.422 -71.277,832.657 C-65.552,820.675 -59.345,808.923 -53.311,797.09 C-50.647,791.864 -46.773,787.025 -48.516,779.196 M-58.718,913.059 C-55.126,933.492 -56.851,949.623 -64.584,964.962 C-68.965,973.652 -76.019,979.409 -85.089,983.022 C-96.62,987.615 -108.291,987.756 -120.434,986.156 C-136.249,984.072 -152.172,982.004 -168.085,981.679 C-187.362,981.283 -206.696,983.38 -225.528,977.167 C-231.23,975.286 -236.095,977.675 -239.48,982.423 C-244.114,988.921 -249.288,995.225 -252.755,1002.332 C-265.885,1029.251 -279.619,1055.974 -290.855,1083.691 C-303.341,1114.488 -313.526,1146.229 -324.307,1177.697 C-327.097,1185.841 -328.504,1194.477 -330.296,1202.941 C-331.583,1209.019 -330.851,1214.915 -327.131,1220.123 C-311.388,1242.165 -289.454,1253.635 -262.901,1254.866 C-254.212,1255.269 -245.836,1255.488 -237.456,1257.866 C-231.063,1259.679 -224.529,1261.794 -217.978,1262.108 C-188.73,1263.512 -159.403,1266.086 -130.196,1262.411 C-111.735,1260.088 -93.448,1256.339 -75.116,1253.047 C-61.679,1250.635 -53.957,1242.729 -52.592,1228.876 C-51.809,1220.924 -50.113,1213.021 -49.889,1205.065 C-48.946,1171.705 -44.389,1138.72 -39.508,1105.812 C-33.243,1063.58 -23.936,1022.038 -8.126,982.163 C-3.958,971.651 -0.47,960.861 3.098,950.122 C22.106,892.907 46.893,838.644 83.946,790.56 C87.576,785.85 90.633,780.617 93.374,775.326 C95.729,770.781 93.787,766.043 89.13,763.574 C86.794,762.337 84.309,761.248 81.766,760.55 C64.414,755.785 46.966,752.025 28.857,750.746 C14.221,749.712 2.227,753.947 -6.82,764.667 C-17.511,777.334 -27.772,790.526 -36.761,804.433 C-56.4,834.814 -67.047,869.554 -82.291,902.084 C-84.421,906.629 -84.613,912.367 -84.6,917.55 C-84.586,922.468 -78.454,925.485 -74.147,923.045 C-69.751,920.554 -65.635,917.573 -58.718,913.059 M351.682,1287.699 C350.128,1296.768 344.982,1299.396 338.792,1299.933 C331.506,1300.565 324.143,1300.272 316.816,1300.46 C268.861,1301.692 220.908,1302.981 172.951,1304.168 C161.624,1304.448 150.272,1304.845 138.961,1304.41 C123.46,1303.814 108.515,1304.899 94.132,1311.697 C88.908,1314.166 82.537,1314.901 76.642,1315.114 C62.67,1315.619 48.573,1316.421 34.7,1315.177 C-11.758,1311.011 -58.133,1305.933 -104.557,1301.377 C-112.62,1300.587 -120.372,1299.537 -127.21,1294.627 C-129.276,1293.144 -132.105,1292.687 -134.623,1291.879 C-145.251,1288.47 -145.256,1288.486 -150.966,1276.49 C-165.763,1274.116 -180.87,1275.84 -196.464,1277.558 C-198.756,1280.858 -201.293,1283.942 -203.207,1287.374 C-208.906,1297.593 -217.637,1299.856 -228.617,1298.604 C-255.759,1295.508 -282.959,1292.916 -310.139,1290.155 C-326.694,1288.472 -343.413,1287.76 -359.767,1284.928 C-374.142,1282.439 -388.142,1277.713 -402.236,1273.724 C-405.158,1272.896 -407.766,1270.959 -414,1267.729 C-408.009,1266.538 -405.724,1265.578 -403.514,1265.728 C-391.561,1266.538 -379.623,1267.59 -367.686,1268.625 C-361.057,1269.199 -354.449,1270.045 -347.813,1270.507 C-341.31,1270.96 -336.341,1268.102 -332.36,1262.989 C-327.563,1256.827 -327.854,1252.475 -333.983,1247.842 C-337.169,1245.433 -340.601,1243.352 -343.811,1240.972 C-355.326,1232.435 -359.047,1221.161 -355.061,1207.473 C-352.455,1198.522 -349.661,1189.616 -346.629,1180.801 C-339.483,1160.018 -332.215,1139.276 -324.868,1118.564 C-309.028,1073.901 -289.957,1030.681 -267.035,989.176 C-264.151,983.953 -261.425,978.562 -259.392,972.971 C-257.162,966.84 -259.436,962.532 -265.562,960.491 C-273.145,957.964 -280.867,955.85 -288.535,953.578 C-294.282,951.875 -299.994,950.028 -305.8,948.552 C-333.12,941.605 -351.636,910.206 -350.513,884.575 C-349.351,858.044 -343.062,833.22 -332.656,809.219 C-322.307,785.349 -310.281,762.332 -296.261,740.348 C-290.543,731.382 -285.911,721.722 -280.826,712.355 C-277.68,706.557 -274.613,700.716 -271.177,694.27 C-265.896,698.221 -269.391,702.06 -270.169,705.036 C-276.911,730.813 -285.183,756.286 -287.653,782.95 C-288.875,796.147 -288.829,809.545 -288.211,822.8 C-287.742,832.833 -282.534,840.345 -272.094,843.319 C-268.272,844.408 -264.782,846.742 -260.937,847.656 C-252.796,849.59 -246.388,853.977 -240.827,860.004 C-238.119,862.939 -235.22,865.717 -232.233,868.371 C-221.628,877.795 -216.278,877.873 -207.011,867.81 C-197.402,857.374 -191.375,844.934 -187.027,829.932 C-192.264,828.229 -196.357,826.193 -200.636,825.664 C-207.886,824.767 -215.325,825.335 -222.555,824.345 C-230.932,823.198 -235.177,817.473 -234.499,808.83 C-233.979,802.2 -233.097,795.537 -231.629,789.057 C-229.277,778.675 -226.462,768.388 -223.552,758.143 C-220.636,747.876 -212.593,745.039 -205.305,749.874 C-203.646,750.974 -201.927,752.06 -200.091,752.787 C-198.939,753.243 -197.518,753.017 -196.045,753.107 C-190.236,749.245 -187.645,743.051 -185.42,736.802 C-177.372,714.2 -169.53,691.526 -161.607,668.88 C-158.241,659.259 -157.418,649.337 -158.488,639.285 C-159.941,625.645 -162.121,623.573 -178.026,620.652 C-177.435,617.632 -177.339,614.416 -176.16,611.663 C-173.277,604.928 -170.403,598.1 -166.617,591.86 C-154.073,571.177 -146.694,548.265 -137.501,526.131 C-131.624,511.983 -126.141,497.639 -119.551,483.826 C-102.494,448.08 -90.456,410.865 -84.445,371.675 C-77.98,329.519 -71.521,287.356 -64.385,245.31 C-62.279,232.9 -58.08,220.82 -54.478,208.696 C-52.114,200.737 -48.03,194.532 -38.834,192.333 C-28.821,189.937 -25.015,180.534 -19.936,172.787 C-14.845,165.022 -10.16,156.906 -4.322,149.738 C2.577,141.266 11.233,138.52 22.416,142.696 C33.954,147.004 39.488,143.066 41.711,130.728 C42.653,125.502 42.576,120.1 43.296,114.823 C43.922,110.234 44.629,105.587 46.008,101.188 C47.572,96.195 51.829,94.15 57.151,95.471 C69.025,98.42 80.123,102.266 85.391,115.15 C88.559,122.895 95.347,127.465 102.82,130.866 C104.64,131.693 106.469,132.508 108.328,133.24 C150.489,149.833 192.438,166.994 234.879,182.835 C279.317,199.421 321.944,219.812 364.307,240.941 C387.543,252.53 411.194,263.291 434.698,274.34 C443.941,278.686 453.421,280.829 463.786,278.322 C473.478,275.978 482.28,278.238 489.46,285.605 C507.051,303.65 528.404,304.521 550.66,297.828 C570.52,291.856 589.052,282.82 606.055,270.619 C616.314,263.257 627.259,256.811 638.182,250.446 C641.337,248.608 645.487,248.479 649.792,247.415 C655.17,260.593 644.412,269.706 643.908,281.957 C646.368,284.42 649.48,287.535 653.311,291.37 C650.427,295.763 647.534,300.091 644.726,304.471 C641.855,308.95 638.624,313.269 636.344,318.037 C632.95,325.135 633.977,331.075 640.202,335.916 C650.185,343.677 660.392,351.284 671.192,357.818 C681.436,364.016 688.086,371.841 691.851,383.445 C695.09,393.428 699.979,403.308 706.125,411.795 C712.315,420.344 714.506,428.76 710.338,437.853 C705.563,448.271 706.191,458.269 709.919,467.258 C707.202,474.772 702.314,478.512 696.726,480.651 C685.03,485.13 681.088,493.786 680.303,505.554 C679.822,512.765 677.643,519.956 675.53,526.946 C670.703,542.911 665.972,558.796 665.194,575.678 C664.925,581.515 663.026,587.534 660.688,592.961 C656.819,601.941 648.473,605.382 639.177,602.023 C634.242,600.239 629.666,597.311 625.164,594.52 C620.109,591.386 615.302,587.848 610.448,584.4 C610.089,584.145 610.224,583.195 610.11,582.439 C613.906,577.799 616.926,582.672 620.264,583.376 C631.027,585.647 637.553,578.898 634.236,568.75 C633.418,566.248 632.152,563.832 630.741,561.598 C627.73,556.828 626.638,551.717 627.955,546.295 C630.623,535.309 627.707,525.11 623.69,515.131 C618.962,503.385 614.013,491.725 608.92,480.133 C605.636,472.658 600.926,466.046 593.328,462.526 C583.357,457.908 575.934,450.587 568.819,442.469 C561.369,433.969 556.696,434.775 550.398,444.76 C537.99,464.431 526.366,484.465 516.915,505.848 C512.995,514.719 505.858,522.48 499.07,529.698 C489.616,539.751 482.438,539.072 472.264,528.72 C470.893,527.324 469.782,525.67 467.642,523.005 C464.356,526.353 460.903,528.557 459.378,531.697 C456.216,538.209 454.077,545.219 451.275,552.668 C443.58,553.724 437.214,550.184 431.535,545.669 C423.999,539.677 423.816,524.988 432.061,516.963 C443.823,505.514 449.365,490.228 458.497,477.206 C459.981,475.089 460.715,472.355 461.419,469.802 C462.58,465.592 461.875,461.437 457.831,459.354 C446.09,453.308 434.134,447.678 423.388,442.435 C421.189,443.054 420.327,443.027 419.955,443.441 C409.476,455.102 395.505,455.226 381.469,455.194 C376.089,455.182 372.677,452.487 371.089,447.508 C367.232,435.415 367.861,424.105 375.759,413.376 C382.437,404.304 387.891,394.334 394.525,385.226 C397.969,380.497 402.174,375.706 407.13,372.827 C416.691,367.27 421.438,359.308 423.082,348.831 C423.493,346.212 424.216,343.592 425.172,341.118 C428.456,332.615 426.602,325.553 419.866,319.472 C418.049,317.832 416.871,315.483 413.902,311.4 C419.439,311.664 422.546,311.86 425.657,311.947 C429.641,312.058 433.673,312.485 437.6,312.037 C442.297,311.502 447.01,310.098 448.408,304.688 C449.821,299.224 446.394,295.619 442.32,293.238 C437.778,290.584 432.855,288.186 427.788,286.892 C406.223,281.387 386.732,271.516 367.67,260.304 C344.713,246.8 322.059,232.763 297.316,222.416 C274.39,212.828 250.496,206.977 226.357,201.974 C219.316,200.515 211.722,200.835 204.478,201.452 C192.916,202.438 181.765,201.739 171.402,196.229 C155.33,187.684 140.633,190.194 126.685,201.014 C124.06,203.05 121.096,204.643 118.332,206.506 C105.398,215.228 91.359,217.398 76.31,213.652 C70.489,212.204 64.715,210.523 58.84,209.347 C52.975,208.173 47.008,206.736 41.089,206.748 C23.143,206.781 8.33,213.408 0.124,230.198 C-4.229,239.104 -7.836,248.56 -10.353,258.143 C-17.338,284.735 -18.667,312.105 -19.858,339.419 C-20.526,354.731 -20.423,370.075 -20.881,385.399 C-21.717,413.391 -23.863,441.263 -28.123,468.98 C-31.16,488.738 -33.671,508.578 -33.037,528.676 C-32.2,555.212 -38.278,580.142 -50.089,603.921 C-57.794,619.432 -64.266,635.55 -71.753,651.175 C-81.649,671.828 -81.739,693.702 -80.521,715.764 C-80.226,721.107 -76.241,724.388 -70.945,723.571 C-65.077,722.667 -59.141,721.327 -53.631,719.164 C-44.268,715.49 -34.928,712.264 -24.772,711.601 C-20.828,711.345 -16.924,710.101 -13.054,709.106 C3.267,704.907 15.246,695.664 23.554,680.583 C46.383,639.138 60.312,594.948 66.155,548.136 C68.147,532.183 71.31,516.566 77.033,501.529 C78.128,498.652 78.686,494.95 84.19,494.79 C84.779,496.926 85.903,499.259 85.991,501.63 C86.336,510.95 87.18,520.356 86.355,529.596 C82.664,570.947 74.945,611.483 58.354,649.799 C53.077,661.987 46.191,673.483 39.932,685.237 C37.43,689.937 34.297,694.32 32.044,699.126 C28.435,706.826 30.605,711.455 38.982,714.497 C42.727,715.857 46.611,716.989 50.527,717.693 C68.395,720.908 85.02,727.839 101.702,734.583 C114.596,739.795 114.548,739.915 129.757,738.973 C143.81,756.519 164.09,766.612 184.477,776.367 C202.507,784.994 220.815,793.046 239.094,801.141 C269.555,814.628 300.119,827.882 330.57,841.391 C336.65,844.087 342.889,846.827 348.251,850.67 C371.484,867.322 398.586,874.768 425.084,883.646 C445.299,890.418 465.487,897.009 483.143,909.642 C487.889,913.038 493.935,914.735 499.539,916.791 C512.049,921.379 524.717,925.54 537.198,930.205 C542.793,932.297 548.94,934.169 553.374,937.885 C569.353,951.277 589.215,954.636 608.14,960.484 C634.21,968.542 660.43,976.137 686.347,984.655 C698.949,988.798 710.334,989.213 723.098,984.037 C734.62,979.364 747.59,978.246 759.937,975.628 C765.322,974.487 770.104,975.311 775.187,978.166 C778.877,980.239 784.005,980.457 788.448,980.293 C793.033,980.124 797.617,978.691 802.11,977.472 C827.198,970.666 852.393,964.207 877.295,956.767 C906.736,947.97 934.728,935.681 961.911,921.192 C1017.836,891.383 1072.305,859.161 1125.564,824.868 C1144.611,812.605 1162.95,799.212 1182.264,787.4 C1194.124,780.148 1207.083,774.612 1219.8,768.862 C1232.092,763.303 1245.265,761.254 1258.712,760.67 C1268.031,760.265 1277.363,759.75 1286.637,758.781 C1302.921,757.08 1317.589,751.68 1329.974,740.306 C1339.765,731.316 1350.217,723.024 1360.654,714.773 C1364.778,711.511 1369.367,708.435 1374.243,706.604 C1388.588,701.218 1396.874,690.294 1401.883,676.768 C1416.16,638.213 1423.797,598.586 1419.902,557.22 C1418.719,544.659 1418.151,532.039 1417.254,518.75 C1421.382,516.911 1425.442,515.103 1430.824,512.706 C1430.866,504.37 1431.916,495.689 1430.772,487.307 C1426.452,455.63 1422.39,423.861 1416.281,392.506 C1412.757,374.418 1409.136,355.872 1399.231,339.571 C1397.927,337.426 1397.2,334.407 1397.458,331.924 C1398.982,317.279 1392.893,304.563 1387.862,291.53 C1385.463,285.319 1383.16,279.053 1381.246,272.682 C1380.557,270.388 1381.135,267.715 1381.135,263.169 C1387.909,266.212 1393.042,268.52 1399.33,271.346 C1401.578,268.282 1404.712,265.562 1405.882,262.165 C1413.36,240.453 1412.675,218.678 1403.285,197.82 C1376.452,138.218 1331.012,101.745 1266.448,89.826 C1259.931,88.623 1253.2,88.479 1246.554,88.104 C1238.319,87.638 1230.548,88.942 1224.506,95.302 C1219.802,100.254 1214.067,100.512 1207.878,99.207 C1195.508,96.598 1183.099,94.17 1170.764,91.412 C1169.063,91.032 1167.688,89.198 1164.96,87.123 C1168.497,84.428 1171.179,80.821 1174.388,80.268 C1180.81,79.161 1187.531,79.408 1194.108,79.655 C1218.743,80.581 1243.366,81.811 1268.001,82.718 C1271.937,82.863 1275.961,82.191 1279.857,81.442 C1284.182,80.612 1286.025,74.882 1282.687,72.195 C1270.766,62.597 1258.739,53.12 1246.473,43.97 C1241.275,40.092 1234.935,41.228 1229.032,42.303 C1209.854,45.797 1191.877,52.702 1174.747,61.916 C1170.66,64.114 1166.728,66.817 1162.386,68.282 C1144.081,74.454 1125.682,80.351 1107.25,86.136 C1095.611,89.788 1095.557,89.619 1080.631,86.792 C1083.384,84.562 1084.979,82.551 1087.046,81.739 C1091.998,79.794 1097.143,78.318 1102.26,76.824 C1113.38,73.576 1123.629,68.769 1130.377,58.941 C1135.228,51.877 1141.953,50.57 1149.591,50.944 C1152.912,51.107 1156.269,51.257 1159.529,51.854 C1176.543,54.967 1190.734,48.895 1203.717,39.395 C1203.717,37.27 1204.191,35.712 1203.647,34.706 C1194.426,17.665 1194.398,17.328 1213.162,14.304 C1221.118,13.023 1226.841,9.538 1230.3,2.325 C1233.048,-3.406 1233.554,-8.996 1230.148,-14.818 C1226.797,-20.548 1223.473,-26.392 1221.118,-32.561 C1220.112,-35.195 1220.534,-39.602 1222.194,-41.737 C1224.689,-44.95 1228.14,-42.522 1230.812,-40.452 C1236.603,-35.964 1242.286,-31.332 1248.164,-26.962 C1254.047,-22.587 1260.815,-21.428 1266.846,-25.669 C1282.155,-36.435 1300.083,-38.846 1317.57,-42.895 C1324.029,-44.392 1330.545,-46.02 1336.664,-48.504 C1342.66,-50.938 1343.388,-59.427 1337.953,-63.313 C1334.883,-65.508 1330.875,-66.738 1327.108,-67.488 C1324.676,-67.973 1321.487,-67.517 1319.37,-66.254 C1304.497,-57.387 1292.357,-63.945 1280.989,-73.075 C1258.048,-91.501 1242.105,-114.89 1233.088,-142.923 C1232.074,-146.073 1231.143,-149.377 1230.972,-152.651 C1229.06,-189.188 1224.842,-225.693 1228.875,-262.475 C1234.044,-262.28 1233.429,-258.025 1234.119,-255.234 C1238.589,-237.145 1243.014,-219.04 1247.001,-200.841 C1248.269,-195.051 1248.335,-188.967 1248.636,-183.002 C1249.139,-173.028 1249.059,-163.015 1249.819,-153.065 C1251.191,-135.09 1259.079,-119.716 1270.748,-106.451 C1278.785,-97.315 1288.602,-91.219 1301.534,-89.65 C1313.311,-88.222 1324.803,-84.294 1336.363,-81.249 C1347.822,-78.232 1353.561,-82.712 1350.877,-94.281 C1348.487,-104.586 1344.579,-114.625 1340.507,-124.436 C1332.592,-143.505 1324.069,-162.321 1315.857,-181.268 C1314.534,-184.319 1313.415,-187.47 1312.387,-190.635 C1311.06,-194.717 1311.536,-198.667 1314.616,-201.773 C1321.196,-208.407 1327.804,-214.436 1338.024,-215.797 C1354.552,-217.998 1357.202,-221.161 1359.595,-236.53 C1360.004,-239.159 1360.068,-241.84 1360.31,-244.496 C1360.922,-251.176 1363.74,-255.831 1371.046,-256.775 C1372.923,-257.017 1374.688,-258.127 1376.603,-258.876 C1380.304,-265.599 1381.085,-272.781 1381.287,-280.161 C1381.432,-285.466 1381.26,-290.941 1382.513,-296.024 C1386.016,-310.232 1389.742,-324.418 1394.189,-338.355 C1402.3,-363.775 1419.365,-383.386 1437.197,-402.372 C1438.022,-403.251 1439.563,-403.456 1440.827,-404 C1445.351,-403.166 1446.012,-399.542 1444.443,-396.568 C1441.687,-391.344 1438.195,-386.414 1434.434,-381.835 C1428.096,-374.118 1421.054,-366.976 1414.762,-359.223 C1402.79,-344.471 1397.842,-327.593 1401.512,-308.768 C1404.589,-292.991 1405.776,-277.108 1405.977,-261.082 C1406.053,-255.096 1405.764,-248.85 1407.32,-243.184 C1412.692,-223.64 1408.604,-204.832 1404.083,-185.976 C1402.996,-181.443 1401.627,-176.971 1400.238,-172.518 C1397.723,-164.453 1398.112,-156.717 1402.707,-149.461 C1411.18,-136.082 1413.695,-121.168 1415.038,-105.688 C1416.129,-93.114 1418.627,-80.66 1420.6,-68.168 C1420.908,-66.215 1421.637,-64.306 1422.345,-62.442 C1424.875,-55.783 1430.443,-53.84 1436.826,-57.794 C1440.765,-60.234 1444.254,-63.399 1447.96,-66.218 C1451.146,-68.641 1454.352,-71.324 1458.669,-68.86 C1461.796,-67.076 1460.936,-62.44 1456.321,-56.638 C1454.251,-54.035 1451.809,-51.73 1449.686,-49.166 C1446.714,-45.575 1443.875,-41.874 1440.992,-38.209 C1437.019,-33.16 1434.737,-27.846 1440.4,-21.136 C1435.124,-19.571 1431.511,-18.393 1427.841,-17.431 C1417.983,-14.844 1408.985,-10.749 1402.128,-2.907 C1396.406,3.639 1389.094,5.916 1380.644,5.63 C1375.984,5.472 1371.273,5.325 1366.657,5.831 C1362.07,6.334 1357.364,7.109 1353.081,8.74 C1344.191,12.124 1340.341,18.694 1343.155,27.723 C1345.488,35.211 1348.68,43.03 1353.576,48.99 C1362.412,59.745 1371.882,70.4 1382.78,78.935 C1396.761,89.884 1402.531,104.357 1402.987,120.54 C1403.336,132.92 1407.761,142.03 1415.228,151.066 C1429.216,167.992 1442.326,185.645 1456.325,202.562 C1464.802,212.805 1473.755,222.772 1483.412,231.89 C1494.917,242.753 1503.133,254.804 1506.373,270.671 C1508.191,279.576 1512.951,287.88 1516.991,297.966 C1511.402,309.3 1513.936,322.332 1516.873,335.44 C1525.805,375.312 1530.035,415.642 1526.871,456.466 C1524.087,492.38 1519.567,528.048 1508.183,562.507 C1505.685,570.068 1503.624,577.91 1502.58,585.785 C1500.796,599.234 1496.374,611.685 1490.264,623.61 C1482.057,639.625 1474.32,655.942 1465.088,671.355 C1452.087,693.058 1438.11,714.207 1419.915,732.13 C1418.017,734 1416.02,735.801 1414.336,737.853 C1388.529,769.308 1354.772,788.478 1316.915,801.602 C1302.58,806.571 1288.015,806.031 1273.43,804.81 C1270.049,804.527 1265.889,801.594 1263.898,798.654 C1253.351,783.079 1239.361,781.882 1223.438,788.087 C1216.63,790.738 1209.688,793.401 1203.473,797.16 C1172.684,815.781 1142.265,835.018 1111.423,853.549 C1088.009,867.617 1063.526,879.983 1040.638,894.831 C1001.095,920.484 958.303,938.379 913.58,952.364 C872.243,965.291 830.962,978.404 789.769,991.781 C777.118,995.889 764.837,1001.134 752.388,1005.861 C744.914,1008.7 737.392,1011.42 729.988,1014.429 C724.674,1016.588 720.029,1015.382 714.65,1013.794 C685.961,1005.317 657.225,996.796 626.909,996.231 C622.338,996.146 617.361,996.02 613.295,994.251 C588.729,983.566 562.974,977.252 536.808,972.199 C529.621,970.811 522.464,969.046 515.493,966.826 C509.17,964.813 502.214,963.131 497.111,959.239 C479.798,946.035 459.225,939.983 439.801,931.391 C438.02,930.604 436.357,929.548 433.78,928.15 C435.754,922.346 439.983,921.575 444.36,923.587 C464.586,932.884 486.967,933.87 507.904,940.372 C509.31,940.809 511.219,939.624 513.846,938.948 C511.658,936.942 510.475,935.045 508.832,934.477 C491.254,928.396 474.488,919.82 455.747,917.248 C452.557,916.809 449.009,915.837 446.522,913.938 C427.672,899.543 405.678,891.984 383.746,884.111 C371.843,879.839 359.836,875.513 348.604,869.784 C317.671,854.005 285.742,840.666 253.351,828.254 C214.15,813.233 175.225,797.492 136.071,782.346 C109.851,772.203 106.003,772.913 88.337,795.055 C77.565,808.557 67.189,822.712 58.959,837.838 C38.547,875.351 20.628,914.045 10.145,955.773 C7.062,968.045 2.826,980.021 -0.506,992.236 C-8.286,1020.761 -12.101,1049.47 -7.572,1079.209 C-4.256,1100.993 -1.135,1122.748 5.653,1143.73 C8.079,1151.227 11.51,1158.649 15.838,1165.211 C20.235,1171.877 25.139,1177.632 26.346,1186.237 C26.991,1190.83 31.521,1195.467 35.345,1198.927 C58.627,1219.998 83.203,1239.248 112.753,1251.074 C117.082,1252.806 121.246,1254.942 125.525,1256.802 C134.945,1260.894 143.046,1266.078 146.471,1276.742 C149.271,1285.455 156.157,1288.252 165.087,1288.89 C196.317,1291.122 227.481,1294.297 258.719,1296.403 C269.93,1297.158 281.348,1296.57 292.548,1295.407 C311.575,1293.432 330.505,1290.514 351.682,1287.699" id="Fill-4-Copy" fill="#F2F4FB" mask="url(#mask-2)"></path>
            </g>
        </g>
    </g>
</svg>