<?xml version="1.0" encoding="UTF-8" standalone="no"?>
<svg width="145px" height="126px" viewBox="0 0 145 126" version="1.1" xmlns="http://www.w3.org/2000/svg" xmlns:xlink="http://www.w3.org/1999/xlink">
    <!-- Generator: Sketch 41.2 (35397) - http://www.bohemiancoding.com/sketch -->
    <title>Group 21</title>
    <desc>Created with Sketch.</desc>
    <defs></defs>
    <g id="Page-1" stroke="none" stroke-width="1" fill="none" fill-rule="evenodd">
        <g id="Desktop-HD-Copy-17" transform="translate(-144.000000, -13225.000000)" fill="#C97B30">
            <g id="Group-21" transform="translate(144.000000, 13225.000000)">
                <path d="M55.95497,39.3531676 C61.0950875,37.4124649 66.6183381,36.4267892 72.4035731,36.4267892 C78.2758838,36.4267892 83.7499178,37.3284649 88.7094478,39.1064649 L91.8767324,44.5887892 C86.1032337,42.4184108 79.6634164,41.3457081 72.4035731,41.3457081 C65.3848916,41.3457081 58.6751397,42.5777081 52.7589125,44.8858162 L55.95497,39.3531676 Z M72.4035731,10.8794378 L84.8860666,32.4878703 C80.9362363,31.5873297 76.7634164,31.1294919 72.4035731,31.1294919 C68.0789386,31.1294919 63.8807533,31.6293297 59.8480117,32.6138703 L72.4035731,10.8794378 Z M42.5335731,62.5867351 L47.927346,53.2494919 C54.4996697,48.980627 63.1231945,46.6430054 72.4035731,46.6430054 C81.9603225,46.6430054 89.8898916,48.6484108 96.5973721,52.760627 L101.602333,61.4247351 C101.02309,61.0104108 100.434761,60.6010054 99.8263668,60.2033297 C91.715453,54.8977081 82.7451397,52.3183027 72.4035731,52.3183027 C58.901158,52.3183027 49.490923,57.0650595 42.5335731,62.5867351 L42.5335731,62.5867351 Z M9.1801658,120.324249 L32.1870849,80.4968973 C44.9724504,93.4964649 57.7574373,100.112032 71.1341606,100.659168 C71.1387037,100.659168 71.1428681,100.659546 71.1474112,100.659546 C71.7463407,100.683762 72.3460274,100.700789 72.947607,100.700789 L72.947607,100.665222 C73.2701658,100.651222 73.5912102,100.630789 73.909983,100.601276 C79.7236123,100.057924 84.7861188,96.8954378 87.9060796,92.310627 C88.2967846,91.7362486 88.6568238,91.1395459 88.9843042,90.5227892 L83.1767324,89.8261946 C80.6621371,93.1986811 76.6422676,95.3868432 72.1203877,95.3868432 C64.5209491,95.3868432 58.3385731,89.2083027 58.3385731,81.6134919 C58.3385731,74.0186811 64.5209491,67.8397622 72.1203877,67.8397622 C76.788782,67.8397622 80.9199569,70.1739784 83.4141084,73.7341405 L89.0505574,72.8328432 C85.8662363,66.7250595 79.4748786,62.5424649 72.1203877,62.5424649 C61.5986123,62.5424649 53.038312,71.0976 53.038312,81.6134919 C53.038312,85.2201946 54.0461188,88.5964649 55.7936906,91.4759243 C49.1093042,88.3770054 42.4650483,83.4259243 35.7628681,76.5750054 C35.9161971,76.4081405 36.0676332,76.2431676 36.2232337,76.0732757 C43.363064,68.2839784 53.1412885,57.6156 72.4035731,57.6156 C81.6820587,57.6156 89.7024896,59.9119784 96.9237167,64.6356541 C102.91074,68.5518703 107.418612,73.5116541 111.377907,78.3469514 L135.627359,120.324249 L9.1801658,120.324249 Z M144.807411,125.621546 L115.937268,75.6453297 L115.983077,75.6082486 C115.907738,75.5151676 115.830127,75.4217081 115.754409,75.328627 L100.607777,49.1085189 C100.607777,49.1085189 100.571811,49.0078703 100.535845,48.9844108 L92.5695522,35.1940324 L92.516171,35.0937622 L92.3624634,34.8349514 L72.4035731,0.284843243 L52.2830248,35.1153297 L52.2020065,35.2553297 L43.941171,49.5553838 C43.8374373,49.7336 43.8230509,49.7634919 43.7155313,49.9462486 L0.000113577022,125.621546 L144.807411,125.621546 Z" id="Fill-1"></path>
                <path d="M71.9552089,72.1485459 C68.6561749,72.1485459 65.6376762,73.8478432 63.9131984,76.6262757 L69.6624674,78.0690324 C70.3386292,77.6308703 71.1313969,77.3841676 71.9552089,77.3841676 C74.2884595,77.3841676 76.1867102,79.2817351 76.1867102,81.6136811 C76.1867102,83.945627 74.2884595,85.8424378 71.9552089,85.8424378 C70.8629765,85.8424378 69.8472193,85.4273568 69.0684595,84.6936811 L63.6027546,86.0653027 C65.2579504,89.1577892 68.4551436,91.0780595 71.9552089,91.0780595 C77.1771018,91.0780595 81.4252611,86.8326541 81.4252611,81.6136811 C81.4252611,76.3947081 77.1771018,72.1485459 71.9552089,72.1485459" id="Fill-4"></path>
            </g>
        </g>
    </g>
</svg>