<?xml version="1.0" encoding="UTF-8" standalone="no"?>
<svg width="125px" height="109px" viewBox="0 0 125 109" version="1.1" xmlns="http://www.w3.org/2000/svg" xmlns:xlink="http://www.w3.org/1999/xlink">
    <!-- Generator: Sketch 41.2 (35397) - http://www.bohemiancoding.com/sketch -->
    <title>logo</title>
    <desc>Created with Sketch.</desc>
    <defs></defs>
    <g id="Page-1" stroke="none" stroke-width="1" fill="none" fill-rule="evenodd">
        <g id="Desktop-HD-Copy-17" transform="translate(-658.000000, -49.000000)" fill="#081A4B">
            <g id="logo" transform="translate(658.000000, 49.000000)">
                <path d="M48.2370431,33.9251445 C52.6681789,32.2521249 57.4296018,31.4024045 62.4168734,31.4024045 C67.4792102,31.4024045 72.198205,32.1797111 76.4736619,33.7124697 L79.2040796,38.4386114 C74.2269256,36.5675955 68.675359,35.6428518 62.4168734,35.6428518 C56.3662859,35.6428518 50.582017,36.7049208 45.4818211,38.6946692 L48.2370431,33.9251445 Z M62.4168734,9.37882572 L73.1776436,28.0067847 C69.7726175,27.2304567 66.175359,26.8357689 62.4168734,26.8357689 C58.6887402,26.8357689 55.0696149,27.2666636 51.5931136,28.1154054 L62.4168734,9.37882572 Z M36.6668734,53.954082 L41.3166775,45.9047344 C46.9824739,42.2246785 54.416547,40.2094874 62.4168734,40.2094874 C70.6554504,40.2094874 77.4912859,41.9382852 83.2735966,45.4832992 L87.588218,52.9523579 C87.0888708,52.5951817 86.5816906,52.242246 86.0572128,51.8994222 C79.0650457,47.3256104 71.332017,45.1019851 62.4168734,45.1019851 C50.7768603,45.1019851 42.6645888,49.1940168 36.6668734,53.954082 L36.6668734,53.954082 Z M7.91393603,103.727801 L27.7474869,69.393877 C38.7693538,80.6004007 49.7908943,86.3034762 61.3225522,86.7751445 C61.3264687,86.7751445 61.3300587,86.7754706 61.3339752,86.7754706 C61.8502937,86.7963467 62.367265,86.8110252 62.8858681,86.8110252 L62.8858681,86.7803635 C63.163936,86.7682945 63.4406984,86.7506803 63.7155026,86.7252377 C68.727252,86.2568313 73.0914817,83.5305499 75.7811031,79.5781267 C76.1179178,79.082973 76.4282963,78.5685741 76.710607,78.0368872 L71.7040796,77.4363747 C69.5363251,80.3436906 66.0709204,82.2300373 62.172748,82.2300373 C55.6215078,82.2300373 50.2918734,76.9037092 50.2918734,70.3564585 C50.2918734,63.8092078 55.6215078,58.4825536 62.172748,58.4825536 C66.1972258,58.4825536 69.7585836,60.4948089 71.9087141,63.5639143 L76.7677219,62.7869338 C74.0226175,57.521603 68.5128264,53.915918 62.172748,53.915918 C53.102252,53.915918 45.7226828,61.2910345 45.7226828,70.3564585 C45.7226828,73.465685 46.5914817,76.3762628 48.0980091,78.8585555 C42.335607,76.1870736 36.6078003,71.9189003 30.8300587,66.0129357 C30.9622389,65.8690867 31.0927872,65.7268686 31.2269256,65.5804101 C37.3819517,58.8654986 45.8114556,49.6686207 62.4168734,49.6686207 C70.4155679,49.6686207 77.3297324,51.6482572 83.5549282,55.7203914 C88.7161554,59.0964399 92.602252,63.3721156 96.0154373,67.5404753 L116.920137,103.727801 L7.91393603,103.727801 Z M124.833975,108.294436 L99.9459204,65.2114911 L99.9854112,65.1795247 C99.9204634,65.0992824 99.8535574,65.0187139 99.7882833,64.9384716 L86.730842,42.3349301 C86.730842,42.3349301 86.6998368,42.248164 86.6688316,42.2279404 L79.8013381,30.3396831 L79.7553198,30.2532432 L79.6228133,30.0301305 L62.4168734,0.24555452 L45.0715731,30.271836 L45.0017298,30.3925256 L37.8803198,42.7201584 C37.7908943,42.8737931 37.7784922,42.899562 37.6858029,43.0571109 L9.79112256e-05,108.294436 L124.833975,108.294436 Z" id="Fill-1"></path>
                <path d="M62.0303525,62.1970224 C59.1863577,62.1970224 56.5842037,63.6619338 55.0975849,66.0571342 L60.0538512,67.30089 C60.6367493,66.923164 61.3201697,66.7104893 62.0303525,66.7104893 C64.0417755,66.7104893 65.6781984,68.3463234 65.6781984,70.3566216 C65.6781984,72.3669199 64.0417755,74.0021016 62.0303525,74.0021016 C61.0887728,74.0021016 60.2131201,73.6442731 59.5417755,73.011794 L54.8299608,74.1942265 C56.2568538,76.8601631 59.0130548,78.5155685 62.0303525,78.5155685 C66.5319843,78.5155685 70.1941906,74.8557363 70.1941906,70.3566216 C70.1941906,65.857507 66.5319843,62.1970224 62.0303525,62.1970224" id="Fill-4"></path>
            </g>
        </g>
    </g>
</svg>