<?xml version="1.0" encoding="UTF-8" standalone="no"?>
<svg width="24px" height="35px" viewBox="0 0 24 35" version="1.1" xmlns="http://www.w3.org/2000/svg" xmlns:xlink="http://www.w3.org/1999/xlink">
    <!-- Generator: Sketch 41.2 (35397) - http://www.bohemiancoding.com/sketch -->
    <title>Page 1</title>
    <desc>Created with Sketch.</desc>
    <defs>
        <polygon id="path-1" points="23.9267273 34.5338909 23.9267273 7.27272727e-05 9.09090886e-06 7.27272727e-05 9.09090886e-06 34.5338909 23.9267273 34.5338909"></polygon>
    </defs>
    <g id="Page-1" stroke="none" stroke-width="1" fill="none" fill-rule="evenodd">
        <g id="Desktop-HD-Copy-17" transform="translate(-1278.000000, -1137.000000)">
            <g id="Page-1" transform="translate(1278.000000, 1137.000000)">
                <mask id="mask-2" fill="white">
                    <use xlink:href="#path-1"></use>
                </mask>
                <g id="Clip-2"></g>
                <path d="M20.2876455,11.1562545 C19.1326455,12.1195273 17.9631909,13.2266182 17.0037364,14.6926182 C15.7289182,16.6402545 15.1092818,18.7942545 15.1092818,21.2775273 C15.1092818,26.4630727 18.0265545,29.1354364 19.9569182,30.9038909 C20.0706455,31.0080727 20.1805545,31.1089818 20.2876455,31.2080727 L20.2876455,32.1802545 L12.2011,26.8891636 L3.64282727,25.4855273 L3.64282727,3.6458 L5.10246364,5.10661818 C3.94100909,6.44007273 3.99091818,8.47061818 5.25764545,9.74298182 C5.92200909,10.4102545 6.79619091,10.7441636 7.67073636,10.7440727 C8.46773636,10.7439818 9.26464545,10.4658 9.90291818,9.91070909 L11.9652818,11.9748 L13.9861909,9.95225455 C14.6161,10.4797091 15.3927364,10.7440727 16.1697364,10.7440727 C17.0441909,10.7440727 17.9185545,10.4101636 18.5828273,9.74298182 C19.8342818,8.48589091 19.8982818,6.4888 18.7796455,5.15498182 L20.2876455,3.6458 L20.2876455,11.1562545 Z M20.2876455,29.4771636 C18.4971909,27.8018 16.3820091,25.4794364 16.3820091,21.2775273 C16.3820091,19.0495273 16.9336455,17.1236182 18.0686455,15.3896182 C18.7192818,14.3955273 19.4900091,13.5717091 20.2876455,12.8432545 L20.2876455,29.4771636 Z M6.00555455,6.01043636 L8.99991818,9.00707273 C8.16191818,9.67643636 6.93328182,9.62225455 6.15964545,8.84507273 C5.38782727,8.0698 5.33773636,6.84516364 6.00555455,6.01043636 L6.00555455,6.01043636 Z M17.6808273,8.84507273 C16.9227364,9.60661818 15.7287364,9.67243636 14.8925545,9.04516364 L17.8731,6.06225455 C18.4989182,6.89525455 18.4370091,8.08543636 17.6808273,8.84507273 L17.6808273,8.84507273 Z M10.3289182,3.0998 C11.3846455,3.28461818 12.4551909,3.28534545 13.5109182,3.10225455 L20.1890091,1.94389091 L11.9652818,10.1741636 L3.74519091,1.94761818 L10.3289182,3.0998 Z M23.9267364,0.0038 L13.2933727,1.84825455 C12.3827364,2.00634545 11.4591,2.00552727 10.5483727,1.84616364 L9.09090886e-06,7.27272727e-05 L2.3701,2.37207273 L2.3701,26.5665273 L11.7294636,28.1015273 L21.5603727,34.5338909 L21.5603727,2.37207273 L23.9267364,0.0038 Z" id="Fill-1" fill="#142CBA" opacity="0.452250466" mask="url(#mask-2)"></path>
            </g>
        </g>
    </g>
</svg>