<?xml version="1.0" encoding="UTF-8" standalone="no"?>
<svg width="43px" height="36px" viewBox="0 0 43 36" version="1.1" xmlns="http://www.w3.org/2000/svg" xmlns:xlink="http://www.w3.org/1999/xlink">
    <!-- Generator: Sketch 41.2 (35397) - http://www.bohemiancoding.com/sketch -->
    <title>“ copy 2</title>
    <desc>Created with Sketch.</desc>
    <defs></defs>
    <g id="Page-1" stroke="none" stroke-width="1" fill="none" fill-rule="evenodd">
        <g id="Desktop-HD-Copy-17" transform="translate(-478.000000, -4079.000000)" fill="#B97433">
            <path d="M493.896,4079.296 C483.528,4085.632 478.488,4096 478.488,4103.776 C478.488,4110.832 483.096,4114.288 487.704,4114.288 C492.456,4114.288 496.344,4110.544 496.344,4105.936 C496.344,4101.328 492.6,4097.44 488.136,4097.44 L487.128,4097.44 C487.992,4091.824 490.872,4087.36 496.344,4081.6 L493.896,4079.296 Z M518.52,4079.296 C508.296,4085.632 503.256,4096 503.256,4103.776 C503.256,4110.832 507.864,4114.288 512.328,4114.288 C517.08,4114.288 520.968,4110.544 520.968,4105.936 C520.968,4101.328 517.224,4097.44 512.76,4097.44 L511.752,4097.44 C512.616,4091.824 515.496,4087.36 520.968,4081.6 L518.52,4079.296 Z" id="“-copy-2"></path>
        </g>
    </g>
</svg>