<?xml version="1.0" encoding="UTF-8" standalone="no"?>
<svg width="43px" height="36px" viewBox="0 0 43 36" version="1.1" xmlns="http://www.w3.org/2000/svg" xmlns:xlink="http://www.w3.org/1999/xlink">
    <!-- Generator: Sketch 41.2 (35397) - http://www.bohemiancoding.com/sketch -->
    <title>“ copy 3</title>
    <desc>Created with Sketch.</desc>
    <defs></defs>
    <g id="Page-1" stroke="none" stroke-width="1" fill="none" fill-rule="evenodd">
        <g id="Desktop-HD-Copy-17" transform="translate(-482.000000, -3139.000000)" fill="#142CBA">
            <path d="M497.896,3139.296 C487.528,3145.632 482.488,3156 482.488,3163.776 C482.488,3170.832 487.096,3174.288 491.704,3174.288 C496.456,3174.288 500.344,3170.544 500.344,3165.936 C500.344,3161.328 496.6,3157.44 492.136,3157.44 L491.128,3157.44 C491.992,3151.824 494.872,3147.36 500.344,3141.6 L497.896,3139.296 Z M522.52,3139.296 C512.296,3145.632 507.256,3156 507.256,3163.776 C507.256,3170.832 511.864,3174.288 516.328,3174.288 C521.08,3174.288 524.968,3170.544 524.968,3165.936 C524.968,3161.328 521.224,3157.44 516.76,3157.44 L515.752,3157.44 C516.616,3151.824 519.496,3147.36 524.968,3141.6 L522.52,3139.296 Z" id="“-copy-3"></path>
        </g>
    </g>
</svg>