<?xml version="1.0" encoding="UTF-8" standalone="no"?>
<svg width="251px" height="393px" viewBox="0 0 251 393" version="1.1" xmlns="http://www.w3.org/2000/svg" xmlns:xlink="http://www.w3.org/1999/xlink">
    <!-- Generator: Sketch 41.2 (35397) - http://www.bohemiancoding.com/sketch -->
    <title>Fill 1</title>
    <desc>Created with Sketch.</desc>
    <defs></defs>
    <g id="Page-1" stroke="none" stroke-width="1" fill="none" fill-rule="evenodd">
        <g id="Desktop-HD-Copy-17" transform="translate(0.000000, -4126.000000)" fill="#FFFFFF">
            <path d="M247.76829,4347.08338 C247.76829,4406.072 217.226744,4461.0592 167.604058,4492.36493 L167.604058,4215.55243 L247.038096,4215.55243 L247.038096,4213.20831 L-79.924514,4213.20831 L-79.924514,4128.34412 L247.76829,4128.34412 L247.76829,4347.08338 Z M161.267901,4496.19522 L161.266729,4496.19522 C137.761061,4509.63758 111.448309,4516.44139 85.0945343,4516.6383 L85.0945343,4215.55243 L165.259938,4215.55243 L165.259938,4493.82297 C163.939026,4494.62584 162.614598,4495.42518 161.267901,4496.19522 L161.267901,4496.19522 Z M2.58501015,4493.8218 L2.58501015,4215.55243 L82.7504138,4215.55243 L82.7504138,4516.6383 C56.3954674,4516.44256 30.0827152,4509.63641 6.5770473,4496.19522 C5.2303501,4495.42518 3.90592204,4494.62584 2.58501015,4493.8218 L2.58501015,4493.8218 Z M-79.924514,4347.08338 L-79.924514,4215.55243 L0.240889692,4215.55243 L0.240889692,4492.36376 C-49.3841405,4461.0592 -79.924514,4406.07317 -79.924514,4347.08338 L-79.924514,4347.08338 Z M-82.2686344,4126 L-82.2686344,4213.20831 L-83,4213.20831 L-83,4215.55243 L-82.2686344,4215.55243 L-82.2686344,4347.08338 C-82.2686344,4409.38776 -48.6703558,4467.30277 5.41436355,4498.22992 C29.6291279,4512.07781 56.7705267,4519 83.922474,4519 C111.066217,4519 138.220508,4512.07547 162.430585,4498.22992 C216.515304,4467.30277 250.11241,4409.38658 250.11241,4347.08338 L250.11241,4126 L-82.2686344,4126 Z" id="Fill-1"></path>
        </g>
    </g>
</svg>