<?xml version="1.0" encoding="UTF-8" standalone="no"?>
<svg width="20px" height="328px" viewBox="0 0 20 328" version="1.1" xmlns="http://www.w3.org/2000/svg" xmlns:xlink="http://www.w3.org/1999/xlink">
    <!-- Generator: Sketch 41 (35326) - http://www.bohemiancoding.com/sketch -->
    <title>Group</title>
    <desc>Created with Sketch.</desc>
    <defs></defs>
    <g id="Page-1" stroke="none" stroke-width="1" fill="none" fill-rule="evenodd">
        <g id="case_study_page" transform="translate(-36.000000, -492.000000)">
            <g id="Group" transform="translate(36.000000, 492.000000)">
                <polygon id="Star-3" fill="#FFFFFF" points="10 15 4.12214748 18.0901699 5.24471742 11.545085 0.489434837 6.90983006 7.06107374 5.95491503 10 0 12.9389263 5.95491503 19.5105652 6.90983006 14.7552826 11.545085 15.8778525 18.0901699"></polygon>
                <polygon id="Star-3-Copy" fill="#FFFFFF" points="10 52 4.12214748 55.0901699 5.24471742 48.545085 0.489434837 43.9098301 7.06107374 42.954915 10 37 12.9389263 42.954915 19.5105652 43.9098301 14.7552826 48.545085 15.8778525 55.0901699"></polygon>
                <polygon id="Star-3-Copy-2" fill="#FFFFFF" points="10 89 4.12214748 92.0901699 5.24471742 85.545085 0.489434837 80.9098301 7.06107374 79.954915 10 74 12.9389263 79.954915 19.5105652 80.9098301 14.7552826 85.545085 15.8778525 92.0901699"></polygon>
                <polygon id="Star-3-Copy-3" fill="#FFFFFF" points="10 126 4.12214748 129.09017 5.24471742 122.545085 0.489434837 117.90983 7.06107374 116.954915 10 111 12.9389263 116.954915 19.5105652 117.90983 14.7552826 122.545085 15.8778525 129.09017"></polygon>
                <polygon id="Star-3-Copy-4" fill="#FFFFFF" points="10 163 4.12214748 166.09017 5.24471742 159.545085 0.489434837 154.90983 7.06107374 153.954915 10 148 12.9389263 153.954915 19.5105652 154.90983 14.7552826 159.545085 15.8778525 166.09017"></polygon>
                <polygon id="Star-3-Copy-5" fill="#FFFFFF" points="10 200 4.12214748 203.09017 5.24471742 196.545085 0.489434837 191.90983 7.06107374 190.954915 10 185 12.9389263 190.954915 19.5105652 191.90983 14.7552826 196.545085 15.8778525 203.09017"></polygon>
                <path d="M11.5,230.5 L11.5,327.5" id="Line" stroke="#FFFFFF" stroke-linecap="square"></path>
                <path id="Line-decoration-1" d="M11.5,327.5 L14.5,316.7 L8.5,316.7 L11.5,327.5 Z" stroke="#FFFFFF" stroke-linecap="square"></path>
            </g>
        </g>
    </g>
</svg>