<?xml version="1.0" encoding="UTF-8" standalone="no"?>
<svg width="104px" height="25px" viewBox="0 0 104 25" version="1.1" xmlns="http://www.w3.org/2000/svg" xmlns:xlink="http://www.w3.org/1999/xlink">
    <!-- Generator: Sketch 41.2 (35397) - http://www.bohemiancoding.com/sketch -->
    <title>Group 22</title>
    <desc>Created with Sketch.</desc>
    <defs></defs>
    <g id="Page-1" stroke="none" stroke-width="1" fill="none" fill-rule="evenodd">
        <g id="Desktop-HD-Copy-17" transform="translate(-502.000000, -2292.000000)" fill="#091A4B">
            <g id="Group-22" transform="translate(502.000000, 2292.000000)">
                <polygon id="Star-Copy-35" points="12.839263 20.25 4.90416206 24.4217294 6.41963148 15.5858647 -3.62343489e-12 9.32827058 8.87171252 8.03913529 12.839263 0 16.8068134 8.03913529 25.6785259 9.32827058 19.2588945 15.5858647 20.7743639 24.4217294"></polygon>
                <polygon id="Star-Copy-36" points="51.839263 20.25 43.9041621 24.4217294 45.4196315 15.5858647 39 9.32827058 47.8717125 8.03913529 51.839263 0 55.8068134 8.03913529 64.6785259 9.32827058 58.2588945 15.5858647 59.7743639 24.4217294"></polygon>
                <polygon id="Star-Copy-37" points="90.839263 20.25 82.9041621 24.4217294 84.4196315 15.5858647 78 9.32827058 86.8717125 8.03913529 90.839263 0 94.8068134 8.03913529 103.678526 9.32827058 97.2588945 15.5858647 98.7743639 24.4217294"></polygon>
            </g>
        </g>
    </g>
</svg>